<svg width="26" height="26" viewBox="0 0 26 26" fill="none" xmlns="http://www.w3.org/2000/svg">
<path d="M15.9883 9.47922C18.9798 14.6607 18.6747 20.4375 15.3067 22.382C11.9387 24.3265 6.7833 21.7024 3.79176 16.5209C0.800217 11.3394 1.10538 5.56259 4.47336 3.61812C7.84134 1.67362 12.9968 4.29773 15.9883 9.47922Z" stroke="#BEBEBE" stroke-width="2" stroke-linecap="square" stroke-linejoin="round"/>
<path d="M9.8899 9.47922C6.89839 14.6607 7.20351 20.4375 10.5715 22.382C13.9395 24.3265 19.0949 21.7024 22.0864 16.5209C25.078 11.3394 24.7728 5.56259 21.4048 3.61812C18.0368 1.67362 12.8814 4.29773 9.8899 9.47922Z" stroke="#BEBEBE" stroke-width="2" stroke-linecap="square" stroke-linejoin="round"/>
<path d="M12.8662 5.6031C14.0281 6.63644 15.1029 7.94581 15.9882 9.47916C18.9797 14.6606 18.6746 20.4374 15.3066 22.3819C14.6034 22.7879 13.8223 22.9947 12.9993 23.0207" stroke="#BEBEBE" stroke-width="2.5" stroke-linecap="square" stroke-linejoin="round"/>
</svg>
