<svg xmlns="http://www.w3.org/2000/svg" viewBox="0 0 48 60" x="0px" y="0px"><title>reading list</title><g data-name="reading list"><path d="M45,19H33.08V18H36a1,1,0,0,0,.08-2V12A1,1,0,0,0,36,10H33.08V6A1,1,0,0,0,33,4H6a4,4,0,0,0-.42,8,3.89,3.89,0,0,0,0,4.08A4,4,0,0,0,2,20a4,4,0,0,0,4,4h.55a3.88,3.88,0,0,0,0,4H6a4,4,0,0,0,0,8H21v7a1,1,0,0,0,1,1H45a1,1,0,0,0,1-1V20A1,1,0,0,0,45,19ZM34.08,12v4H9a2,2,0,0,1,0-4ZM4,8A2,2,0,0,1,6,6H31.08v4H6A2,2,0,0,1,4,8ZM6,22a2,2,0,0,1,0-4H31.08v1H22a1,1,0,0,0-1,1v2Zm15,6H10a2,2,0,0,1,0-4H21ZM6,34a2,2,0,0,1,0-4H21v4Zm38,8H23V21H44Z"/><path d="M40.5,25H30a1,1,0,0,1,0-2H40.5a1,1,0,0,1,0,2Z"/><path d="M40.5,30H30a1,1,0,0,1,0-2H40.5a1,1,0,0,1,0,2Z"/><path d="M40.5,35H30a1,1,0,0,1,0-2H40.5a1,1,0,0,1,0,2Z"/><path d="M40.5,40H30a1,1,0,0,1,0-2H40.5a1,1,0,0,1,0,2Z"/><circle cx="26" cy="24" r="1"/><circle cx="26" cy="29" r="1"/><circle cx="26" cy="34" r="1"/><circle cx="26" cy="39" r="1"/></g><text x="0" y="63" fill="#000000" font-size="5px" font-weight="bold" font-family="'Helvetica Neue', Helvetica, Arial-Unicode, Arial, Sans-serif">Created by Yoyon Pujiyono</text><text x="0" y="68" fill="#000000" font-size="5px" font-weight="bold" font-family="'Helvetica Neue', Helvetica, Arial-Unicode, Arial, Sans-serif">from the Noun Project</text></svg>