<svg width="30" height="30" viewBox="0 0 30 30" fill="none" xmlns="http://www.w3.org/2000/svg">
<path d="M15 15.625C15 15.625 15 5.3125 15 4.6875C15 3.88672 15.3125 2.5 16.875 2.5C18.4375 2.5 18.75 3.88672 18.75 4.6875C18.75 5 18.75 18.75 18.75 18.75C18.75 18.75 22.3144 15.1856 23.125 14.375C23.9356 13.5644 25.0488 13.1738 25.9375 14.0625C26.8262 14.9512 26.9336 15.8789 25.9375 16.875C24.9414 17.8711 21.875 20.9375 21.875 20.9375C21.875 20.9375 18.1836 27.5 16.25 27.5C14.3164 27.5 8.125 27.5 8.125 27.5C8.125 27.5 6.25 27.5 5.00001 26.25C3.75001 25 3.75001 23.4375 3.75001 23.4375C3.75001 23.4375 3.74999 8.4375 3.75001 7.98825C3.75003 7.53906 4.06251 6.25 5.62501 6.25C7.1875 6.25 7.5 7.5 7.5 7.98825C7.5 8.4375 7.5 15.625 7.5 15.625" stroke="#C4C4C4" stroke-width="2.5" stroke-linecap="round" stroke-linejoin="round"/>
<path d="M11.25 13.75C11.25 12.7145 10.4105 11.875 9.375 11.875C8.33947 11.875 7.5 12.7145 7.5 13.75V17.5C7.5 18.5355 8.33947 19.375 9.375 19.375C10.4105 19.375 11.25 18.5355 11.25 17.5V13.75Z" stroke="#C4C4C4" stroke-width="2.5" stroke-linejoin="round"/>
<path d="M15 13.75C15 12.7145 14.1605 11.875 13.125 11.875C12.0895 11.875 11.25 12.7145 11.25 13.75V17.5C11.25 18.5355 12.0895 19.375 13.125 19.375C14.1605 19.375 15 18.5355 15 17.5V13.75Z" stroke="#C4C4C4" stroke-width="2.5" stroke-linejoin="round"/>
</svg>
